<svg width="24" height="38" viewBox="0 0 24 38" fill="none" xmlns="http://www.w3.org/2000/svg">
<path d="M23.3164 24.8C23.3164 19.16 18.4364 17.68 13.9964 16.64V9.84C15.9964 10.08 18.0764 10.76 20.1164 11.92L22.1164 7C19.9164 5.6 16.9964 4.8 13.9964 4.56V0.199998H9.99645V4.64C3.67645 5.36 0.596448 9 0.596448 13.24C0.596448 18.96 5.55645 20.44 9.99645 21.52V28.2C7.11645 27.92 4.23645 26.84 2.23645 25.36L0.0364477 30.24C2.23645 31.96 6.03645 33.2 9.99645 33.44V37.8H13.9964V33.32C20.2764 32.56 23.3164 28.96 23.3164 24.8ZM7.03645 12.92C7.03645 11.6 7.87645 10.44 9.99645 9.96V15.64C8.23645 15.08 7.03645 14.32 7.03645 12.92ZM13.9964 28.04V22.52C15.7164 23.12 16.8764 23.88 16.8764 25.28C16.8764 26.56 15.9964 27.6 13.9964 28.04Z" fill="white"/>
</svg>
