<svg width="24" height="38" viewBox="0 0 24 38" fill="none" xmlns="http://www.w3.org/2000/svg">
<path d="M23.2966 24.8C23.2966 19.16 18.4166 17.68 13.9766 16.64V9.84C15.9766 10.08 18.0566 10.76 20.0966 11.92L22.0966 7C19.8966 5.6 16.9766 4.8 13.9766 4.56V0.199998H9.97658V4.64C3.65658 5.36 0.576579 9 0.576579 13.24C0.576579 18.96 5.53658 20.44 9.97658 21.52V28.2C7.09658 27.92 4.21658 26.84 2.21658 25.36L0.0165788 30.24C2.21658 31.96 6.01658 33.2 9.97658 33.44V37.8H13.9766V33.32C20.2566 32.56 23.2966 28.96 23.2966 24.8ZM7.01658 12.92C7.01658 11.6 7.85658 10.44 9.97658 9.96V15.64C8.21658 15.08 7.01658 14.32 7.01658 12.92ZM13.9766 28.04V22.52C15.6966 23.12 16.8566 23.88 16.8566 25.28C16.8566 26.56 15.9766 27.6 13.9766 28.04Z" fill="#4A4D60"/>
</svg>
